<?xml version="1.0" standalone="no"?>
<!DOCTYPE svg PUBLIC "-//W3C//DTD SVG 20010904//EN"
 "http://www.w3.org/TR/2001/REC-SVG-20010904/DTD/svg10.dtd">
<svg version="1.0" xmlns="http://www.w3.org/2000/svg"
 width="704.000000pt" height="704.000000pt" viewBox="0 0 704.000000 704.000000"
 preserveAspectRatio="xMidYMid meet">
<metadata>
Created by potrace 1.14, written by Peter Selinger 2001-2017
</metadata>
<g transform="translate(0.000000,704.000000) scale(0.100000,-0.100000)"
fill="#000000" stroke="none">
<path d="M5326 7033 c-2 -3 -12 -6 -23 -8 -10 -2 -18 -4 -18 -5 0 -1 -10 -3
-23 -6 -61 -11 -232 -98 -232 -117 0 -5 -4 -6 -9 -3 -7 5 -21 -3 -76 -47 -94
-74 -154 -130 -148 -140 3 -5 2 -7 -4 -4 -13 8 -135 -121 -127 -135 4 -6 3 -8
-4 -4 -9 5 -23 -10 -85 -89 -4 -5 -16 -21 -27 -34 -11 -13 -17 -28 -13 -34 3
-6 1 -7 -5 -3 -6 4 -16 -4 -23 -16 -7 -12 -18 -29 -26 -37 -8 -7 -12 -20 -9
-28 3 -8 2 -12 -3 -8 -9 5 -39 -32 -54 -65 -4 -8 -16 -28 -27 -45 -28 -43 -63
-109 -61 -114 2 -2 -1 -7 -6 -10 -4 -3 -17 -24 -28 -46 -11 -22 -28 -52 -38
-67 -10 -16 -16 -28 -13 -28 3 0 -1 -12 -9 -27 -8 -15 -12 -30 -9 -35 3 -4 1
-8 -4 -8 -17 0 -32 -46 -19 -59 9 -10 9 -12 -2 -9 -9 2 -17 -10 -23 -32 -6
-19 -14 -40 -19 -46 -5 -6 -4 -16 4 -24 9 -10 9 -11 0 -6 -7 4 -13 6 -13 4 0
-2 -9 -34 -19 -71 -13 -44 -16 -65 -8 -60 7 3 3 -3 -7 -15 -13 -15 -15 -22 -6
-22 8 0 9 -4 3 -12 -6 -7 -13 -32 -17 -56 -5 -34 -4 -42 6 -36 11 6 11 5 0 -8
-8 -10 -12 -56 -12 -144 0 -71 0 -136 -1 -144 0 -8 0 -62 0 -120 0 -58 0 -112
0 -120 0 -8 0 -82 1 -165 3 -508 0 -928 -6 -934 -2 -2 1 -10 7 -18 9 -9 8 -13
0 -13 -9 0 -9 -5 -1 -20 8 -14 8 -20 0 -20 -6 0 -8 -5 -4 -12 4 -7 6 -30 5
-53 -7 -99 -5 -175 3 -175 6 0 5 -5 -1 -11 -6 -6 -8 -23 -3 -44 4 -19 5 -36 2
-39 -7 -8 -6 -131 1 -143 4 -6 4 -13 0 -17 -10 -9 -9 -66 1 -66 5 0 3 -6 -3
-13 -6 -8 -8 -16 -6 -19 3 -3 6 -25 5 -49 -4 -685 -1 -2067 4 -2104 28 -193
176 -356 368 -404 63 -16 107 -18 318 -16 224 2 251 4 310 25 84 28 140 54
203 93 415 251 826 847 943 1367 10 44 17 4588 7 4603 -4 7 -9 21 -10 32 -5
31 -63 145 -74 145 -6 0 -8 4 -4 9 3 5 -7 19 -21 30 -15 12 -24 21 -21 21 13
0 -43 49 -63 55 -11 3 -20 10 -20 15 0 11 -88 56 -130 66 -19 4 -42 10 -50 12
-19 6 -518 11 -524 5z m518 -163 c-6 -6 -10 -3 -10 10 0 13 4 16 10 10 7 -7 7
-13 0 -20z m-160 -160 c-6 -6 -10 -3 -10 10 0 13 4 16 10 10 7 -7 7 -13 0 -20z
m406 16 c0 -3 -4 -8 -10 -11 -5 -3 -10 -1 -10 4 0 6 5 11 10 11 6 0 10 -2 10
-4z m-959 -83 c13 -16 12 -17 -3 -4 -10 7 -18 15 -18 17 0 8 8 3 21 -13z
m1079 -39 c0 -8 -19 -13 -24 -6 -3 5 1 9 9 9 8 0 15 -2 15 -3z m-1400 -44 c0
-5 -2 -10 -4 -10 -3 0 -8 5 -11 10 -3 6 -1 10 4 10 6 0 11 -4 11 -10z m1205
-39 c-9 -8 -36 -10 -30 -2 2 4 11 8 20 8 8 0 13 -3 10 -6z m-1364 -38 c13 -16
12 -17 -3 -4 -10 7 -18 15 -18 17 0 8 8 3 21 -13z m1236 -78 c0 -8 -4 -15 -9
-15 -10 0 -11 14 -1 23 9 10 10 9 10 -8z m-1237 -69 c0 -2 -8 -10 -17 -17 -16
-13 -17 -12 -4 4 13 16 21 21 21 13z m1235 -5 c3 -5 2 -12 -3 -15 -5 -3 -9 1
-9 9 0 17 3 19 12 6z m-751 -9 c2 -4 -4 -8 -14 -8 -10 0 -16 4 -14 8 3 4 9 8
14 8 5 0 11 -4 14 -8z m881 -2 c-3 -5 -12 -10 -18 -10 -7 0 -6 4 3 10 19 12
23 12 15 0z m-568 -115 c0 -8 -4 -12 -9 -9 -5 3 -6 10 -3 15 9 13 12 11 12 -6z
m-187 -119 c0 -2 -8 -10 -17 -17 -16 -13 -17 -12 -4 4 13 16 21 21 21 13z
m400 -82 c0 -8 -19 -13 -24 -6 -3 5 1 9 9 9 8 0 15 -2 15 -3z m-1255 -73 c3
-5 2 -12 -3 -15 -5 -3 -9 1 -9 9 0 17 3 19 12 6z m920 -280 c3 -5 2 -12 -3
-15 -5 -3 -9 1 -9 9 0 17 3 19 12 6z m-324 -218 c13 -16 12 -17 -3 -4 -10 7
-18 15 -18 17 0 8 8 3 21 -13z m-101 -147 c0 -2 -8 -10 -17 -17 -16 -13 -17
-12 -4 4 13 16 21 21 21 13z m-566 -164 c3 -5 -1 -9 -9 -9 -8 0 -12 4 -9 9 3
4 7 8 9 8 2 0 6 -4 9 -8z m430 0 c3 -5 -1 -9 -9 -9 -8 0 -12 4 -9 9 3 4 7 8 9
8 2 0 6 -4 9 -8z m-277 -77 c0 -8 -4 -12 -9 -9 -5 3 -6 10 -3 15 9 13 12 11
12 -6z m89 -127 c3 -4 -1 -5 -10 -4 -8 1 -18 5 -22 8 -3 4 1 5 10 4 8 -1 18
-5 22 -8z m74 8 c0 -3 -4 -8 -10 -11 -5 -3 -10 -1 -10 4 0 6 5 11 10 11 6 0
10 -2 10 -4z m-480 -46 c0 -5 -5 -10 -11 -10 -5 0 -7 5 -4 10 3 6 8 10 11 10
2 0 4 -4 4 -10z m805 0 c-3 -5 -12 -10 -18 -10 -7 0 -6 4 3 10 19 12 23 12 15
0z m-370 -88 c-3 -3 -11 0 -18 7 -9 10 -8 11 6 5 10 -3 15 -9 12 -12z m49
-110 c3 -5 -1 -9 -9 -9 -8 0 -12 4 -9 9 3 4 7 8 9 8 2 0 6 -4 9 -8z m-480 -80
c3 -5 -1 -9 -9 -9 -8 0 -12 4 -9 9 3 4 7 8 9 8 2 0 6 -4 9 -8z m111 -82 c3 -5
1 -10 -4 -10 -6 0 -11 5 -11 10 0 6 2 10 4 10 3 0 8 -4 11 -10z m-115 -184 c0
-2 -8 -10 -17 -17 -16 -13 -17 -12 -4 4 13 16 21 21 21 13z m-7 -491 c-3 -9
-8 -14 -10 -11 -3 3 -2 9 2 15 9 16 15 13 8 -4z"/>
<path d="M2146 3603 c-3 -4 -21 -8 -39 -9 -58 -3 -112 -13 -147 -28 -19 -8
-39 -14 -43 -14 -23 0 -220 -91 -225 -104 -2 -4 -8 -8 -13 -8 -17 0 -79 -46
-72 -53 3 -4 -1 -7 -10 -7 -23 0 -98 -69 -90 -83 3 -5 2 -7 -4 -4 -6 4 -17 -1
-26 -11 -9 -9 -30 -31 -46 -48 -17 -17 -27 -34 -24 -38 4 -3 2 -6 -4 -6 -20 0
-146 -212 -146 -246 0 -8 -5 -14 -10 -14 -5 0 -7 -9 -4 -20 3 -11 1 -18 -4
-14 -5 3 -9 -4 -9 -15 0 -12 -4 -21 -8 -21 -4 0 -9 -8 -10 -17 -2 -28 -9 -57
-16 -73 -3 -8 -8 -31 -10 -50 -3 -19 -5 -35 -6 -35 -1 0 -4 -29 -6 -65 -2 -36
-6 -71 -9 -77 -2 -7 0 -13 5 -13 6 0 6 -9 0 -24 -5 -13 -6 -26 -3 -29 2 -3 7
-34 9 -69 2 -35 8 -77 13 -95 5 -17 7 -34 3 -37 -3 -3 -1 -6 4 -6 5 0 11 -11
12 -26 1 -14 6 -33 12 -43 5 -10 6 -21 3 -25 -3 -3 -1 -6 5 -6 7 0 11 -3 10
-7 -4 -19 15 -62 25 -56 6 3 7 1 3 -5 -4 -6 -1 -22 6 -34 7 -13 13 -25 13 -28
6 -22 27 -59 44 -77 12 -13 18 -23 14 -23 -4 0 -3 -4 2 -8 6 -4 23 -26 38 -50
16 -25 32 -40 39 -36 7 5 8 3 3 -6 -5 -8 17 -36 64 -81 39 -38 71 -66 71 -64
0 3 8 -3 18 -12 35 -33 62 -53 62 -45 0 4 4 2 8 -3 9 -13 65 -50 72 -48 3 1 5
-53 5 -120 0 -67 3 -143 7 -169 10 -69 39 -182 49 -192 5 -6 9 -17 9 -25 0
-25 86 -188 134 -255 93 -130 242 -258 389 -332 74 -38 220 -89 280 -98 20 -3
54 -9 75 -12 130 -21 332 -1 476 47 267 90 495 286 620 533 31 62 58 122 63
141 1 6 9 37 18 70 70 254 46 511 -69 750 -84 175 -213 325 -372 431 l-82 55
4 69 c3 52 1 70 -8 70 -9 0 -9 3 -2 8 10 7 14 112 4 112 -3 0 -7 12 -8 28 -1
15 -5 38 -8 52 -3 14 -8 37 -11 53 -3 15 -8 27 -12 27 -4 0 -7 8 -8 18 -2 27
-8 44 -33 97 -12 28 -24 55 -25 60 -5 20 -89 155 -97 155 -4 0 -8 4 -8 10 0
17 -33 49 -43 43 -6 -3 -7 -1 -4 4 8 12 -51 80 -65 76 -4 -2 -8 3 -8 11 0 15
-49 52 -63 48 -5 -1 -6 2 -2 7 3 6 -3 15 -14 20 -11 6 -25 17 -33 24 -28 26
-69 48 -80 41 -6 -4 -8 -3 -5 3 7 10 -20 28 -35 25 -5 -1 -8 2 -8 7 0 8 -37
24 -52 22 -5 -1 -8 3 -8 9 0 6 -3 9 -7 8 -5 -1 -21 5 -38 12 -80 34 -174 57
-186 46 -9 -8 -10 -8 -5 2 5 8 -1 12 -16 13 -42 3 -66 6 -83 12 -11 5 -14 3
-9 -6 6 -9 5 -9 -7 0 -12 10 -18 10 -29 0 -8 -8 -11 -8 -6 0 7 12 -107 13
-120 0 -4 -4 -12 -2 -19 3 -7 5 -15 7 -19 3z m178 -93 c-6 -6 -10 -3 -10 10 0
13 4 16 10 10 7 -7 7 -13 0 -20z m-394 6 c-7 -7 -13 -7 -20 0 -6 6 -3 10 10
10 13 0 16 -4 10 -10z m1038 -321 c-3 -3 -9 2 -12 12 -6 14 -5 15 5 6 7 -7 10
-15 7 -18z m-1198 -59 c0 -2 -8 -10 -17 -17 -16 -13 -17 -12 -4 4 13 16 21 21
21 13z m641 -333 c13 -16 12 -17 -3 -4 -10 7 -18 15 -18 17 0 8 8 3 21 -13z
m484 -163 c-3 -5 -12 -10 -18 -10 -7 0 -6 4 3 10 19 12 23 12 15 0z m-731 -90
c-6 -6 -10 -3 -10 10 0 13 4 16 10 10 7 -7 7 -13 0 -20z m-394 -54 c0 -2 -8
-10 -17 -17 -16 -13 -17 -12 -4 4 13 16 21 21 21 13z"/>
</g>
</svg>
